<?xml version="1.0" encoding="utf-8" standalone="no"?>
<!DOCTYPE svg PUBLIC "-//W3C//DTD SVG 1.1//EN"
  "http://www.w3.org/Graphics/SVG/1.1/DTD/svg11.dtd">
<!-- Created with matplotlib (http://matplotlib.org/) -->
<svg height="288pt" version="1.1" viewBox="0 0 432 288" width="432pt" xmlns="http://www.w3.org/2000/svg" xmlns:xlink="http://www.w3.org/1999/xlink">
 <defs>
  <style type="text/css">
*{stroke-linecap:butt;stroke-linejoin:round;}
  </style>
 </defs>
 <g id="figure_1">
  <g id="patch_1">
   <path d="
M0 288
L432 288
L432 0
L0 0
z
" style="fill:#ffffff;"/>
  </g>
  <g id="axes_1">
   <g id="patch_2">
    <path d="
M54 252
L324 252
L324 28.8
L54 28.8
z
" style="fill:#ffffff;"/>
   </g>
   <g id="line2d_1">
    <path clip-path="url(#p9c5ff84a40)" d="
M54 252
L174.1 251.899
L183.13 251.647
L188.548 251.297
L193.064 250.795
L196.676 250.183
L200.288 249.312
L202.997 248.437
L205.706 247.323
L208.415 245.923
L211.124 244.18
L212.93 242.798
L214.736 241.218
L216.542 239.421
L218.348 237.388
L220.154 235.097
L221.96 232.531
L223.766 229.671
L225.572 226.499
L227.378 223.002
L229.184 219.167
L231.893 212.764
L234.602 205.572
L237.311 197.608
L240.02 188.924
L243.632 176.387
L248.147 159.677
L254.468 136.231
L257.177 126.998
L258.983 121.375
L260.789 116.31
L262.595 111.915
L264.401 108.302
L265.304 106.822
L266.207 105.576
L267.11 104.577
L268.013 103.835
L268.916 103.36
L269.819 103.162
L270.722 103.248
L271.625 103.626
L272.528 104.301
L273.431 105.276
L274.334 106.555
L275.237 108.137
L276.14 110.023
L277.043 112.209
L278.849 117.461
L280.656 123.833
L282.462 131.233
L284.268 139.539
L286.977 153.355
L290.589 173.32
L295.104 198.334
L297.813 212.068
L299.619 220.294
L301.425 227.604
L303.231 233.902
L305.037 239.138
L306.843 243.315
L307.746 245.023
L308.649 246.491
L309.552 247.733
L310.455 248.767
L311.358 249.61
L312.261 250.283
L314.067 251.201
L315.873 251.692
L317.679 251.91
L321.291 251.999
L324 252
L324 252" style="fill:none;stroke:#0000ff;stroke-linecap:square;"/>
   </g>
   <g id="line2d_2">
    <path clip-path="url(#p9c5ff84a40)" d="
M54 252
L167.779 251.899
L175.906 251.674
L181.324 251.334
L185.839 250.837
L189.452 250.225
L193.064 249.347
L195.773 248.46
L198.482 247.327
L201.191 245.898
L203.9 244.115
L205.706 242.701
L207.512 241.084
L209.318 239.244
L211.124 237.162
L212.93 234.82
L214.736 232.198
L216.542 229.28
L218.348 226.05
L220.154 222.495
L222.863 216.535
L225.572 209.809
L228.281 202.328
L230.99 194.132
L233.699 185.299
L237.311 172.742
L248.147 134.286
L250.856 125.945
L252.662 121.009
L254.468 116.693
L256.274 113.094
L258.08 110.306
L258.983 109.243
L259.886 108.414
L260.789 107.827
L261.692 107.49
L262.595 107.41
L263.498 107.593
L264.401 108.043
L265.304 108.764
L266.207 109.758
L267.11 111.025
L268.013 112.564
L268.916 114.373
L270.722 118.786
L272.528 124.212
L274.334 130.577
L276.14 137.783
L278.849 149.893
L282.462 167.678
L288.783 199.435
L291.492 211.788
L293.298 219.237
L295.104 225.933
L296.91 231.807
L298.716 236.822
L300.522 240.978
L302.328 244.308
L304.134 246.875
L305.94 248.769
L307.746 250.094
L309.552 250.964
L311.358 251.492
L313.164 251.783
L315.873 251.958
L322.194 252
L324 252
L324 252" style="fill:none;stroke:#008000;stroke-linecap:square;"/>
   </g>
   <g id="line2d_3">
    <path clip-path="url(#p9c5ff84a40)" d="
M54 252
L162.361 251.895
L170.488 251.65
L175.906 251.273
L180.421 250.717
L184.033 250.03
L186.742 249.322
L189.452 248.404
L192.161 247.227
L194.87 245.738
L196.676 244.544
L198.482 243.165
L200.288 241.585
L202.094 239.782
L203.9 237.737
L205.706 235.432
L207.512 232.847
L209.318 229.966
L211.124 226.774
L212.93 223.259
L215.639 217.361
L218.348 210.705
L221.057 203.304
L223.766 195.203
L226.475 186.484
L230.087 174.117
L240.02 139.375
L242.729 130.948
L244.535 125.885
L246.341 121.376
L248.147 117.515
L249.953 114.39
L250.856 113.128
L251.759 112.08
L252.662 111.254
L253.565 110.657
L254.468 110.297
L255.371 110.178
L256.274 110.307
L257.177 110.686
L258.08 111.317
L258.983 112.204
L259.886 113.344
L260.789 114.738
L261.692 116.383
L263.498 120.408
L265.304 125.371
L267.11 131.204
L268.916 137.817
L271.625 148.957
L274.334 161.17
L283.365 203.206
L286.074 214.344
L287.88 221.027
L289.686 227.031
L291.492 232.311
L293.298 236.849
L295.104 240.655
L296.91 243.761
L298.716 246.22
L300.522 248.102
L302.328 249.489
L304.134 250.467
L305.94 251.121
L307.746 251.533
L310.455 251.85
L314.067 251.98
L324 252
L324 252" style="fill:none;stroke:#ff0000;stroke-linecap:square;"/>
   </g>
   <g id="line2d_4">
    <path clip-path="url(#p9c5ff84a40)" d="
M54 252
L160.555 251.901
L168.682 251.653
L174.1 251.258
L177.712 250.809
L181.324 250.132
L184.033 249.425
L186.742 248.496
L189.452 247.292
L192.161 245.755
L193.967 244.512
L195.773 243.071
L197.579 241.411
L199.385 239.509
L201.191 237.343
L202.997 234.894
L204.803 232.139
L206.609 229.062
L208.415 225.647
L210.221 221.88
L212.93 215.556
L215.639 208.419
L218.348 200.494
L221.057 191.844
L224.669 179.373
L230.087 159.484
L234.602 143.05
L237.311 133.872
L240.02 125.617
L241.826 120.796
L243.632 116.638
L245.438 113.236
L246.341 111.846
L247.244 110.676
L248.147 109.735
L249.05 109.032
L249.953 108.573
L250.856 108.365
L251.759 108.412
L252.662 108.719
L253.565 109.287
L254.468 110.118
L255.371 111.212
L256.274 112.568
L257.177 114.182
L258.983 118.168
L260.789 123.119
L262.595 128.962
L264.401 135.601
L267.11 146.802
L269.819 159.087
L278.849 201.363
L281.559 212.583
L283.365 219.332
L285.171 225.415
L286.977 230.789
L288.783 235.439
L290.589 239.374
L292.395 242.622
L294.201 245.235
L296.007 247.276
L297.813 248.82
L299.619 249.947
L301.425 250.737
L303.231 251.265
L305.037 251.6
L307.746 251.862
L312.261 251.987
L324 252
L324 252" style="fill:none;stroke:#00bfbf;stroke-linecap:square;"/>
   </g>
   <g id="line2d_5">
    <path clip-path="url(#p9c5ff84a40)" d="
M54 252
L179.518 251.905
L186.742 251.687
L191.258 251.379
L194.87 250.957
L198.482 250.292
L201.191 249.568
L203.9 248.586
L205.706 247.752
L207.512 246.746
L209.318 245.542
L211.124 244.109
L212.93 242.417
L214.736 240.431
L216.542 238.117
L218.348 235.439
L220.154 232.362
L221.96 228.853
L223.766 224.881
L225.572 220.419
L227.378 215.445
L229.184 209.946
L230.99 203.918
L233.699 193.899
L236.408 182.786
L239.117 170.737
L243.632 149.289
L249.05 123.54
L251.759 111.852
L253.565 104.896
L255.371 98.8206
L257.177 93.8001
L258.08 91.7372
L258.983 89.9982
L259.886 88.6007
L260.789 87.5606
L261.692 86.892
L262.595 86.6071
L263.498 86.7159
L264.401 87.2259
L265.304 88.1422
L266.207 89.467
L267.11 91.1999
L268.013 93.3372
L268.916 95.8726
L270.722 102.097
L272.528 109.759
L274.334 118.7
L276.14 128.716
L278.849 145.225
L286.977 196.655
L288.783 206.739
L290.589 215.868
L292.395 223.911
L294.201 230.798
L296.007 236.514
L297.813 241.101
L299.619 244.646
L300.522 246.065
L301.425 247.272
L302.328 248.286
L303.231 249.126
L305.037 250.365
L306.843 251.14
L308.649 251.589
L310.455 251.826
L313.164 251.965
L320.388 252
L324 252
L324 252" style="fill:none;stroke:#bf00bf;stroke-linecap:square;"/>
   </g>
   <g id="line2d_6">
    <path clip-path="url(#p9c5ff84a40)" d="
M54 252
L184.033 251.906
L190.355 251.696
L194.87 251.337
L198.482 250.811
L201.191 250.194
L203.9 249.305
L205.706 248.516
L207.512 247.53
L209.318 246.31
L211.124 244.812
L212.93 242.99
L214.736 240.792
L216.542 238.166
L218.348 235.054
L220.154 231.402
L221.96 227.155
L223.766 222.266
L225.572 216.69
L227.378 210.397
L229.184 203.37
L230.99 195.609
L233.699 182.646
L236.408 168.269
L240.02 147.495
L246.341 110.499
L249.05 96.3691
L250.856 88.1772
L252.662 81.2775
L253.565 78.3909
L254.468 75.9187
L255.371 73.8876
L256.274 72.3215
L257.177 71.2417
L258.08 70.6659
L258.983 70.6083
L259.886 71.0793
L260.789 72.0849
L261.692 73.6269
L262.595 75.7023
L263.498 78.3037
L264.401 81.4188
L265.304 85.0304
L267.11 93.6525
L268.916 103.944
L270.722 115.615
L273.431 134.956
L280.656 188.19
L282.462 199.95
L284.268 210.551
L286.074 219.84
L287.88 227.743
L289.686 234.261
L291.492 239.461
L293.298 243.465
L294.201 245.066
L295.104 246.428
L296.007 247.575
L296.91 248.53
L297.813 249.314
L299.619 250.46
L301.425 251.173
L303.231 251.588
L305.94 251.878
L309.552 251.984
L324 252
L324 252" style="fill:none;stroke:#bfbf00;stroke-linecap:square;"/>
   </g>
   <g id="line2d_7">
    <path clip-path="url(#p9c5ff84a40)" d="
M54 252
L191.258 251.897
L196.676 251.656
L200.288 251.275
L202.997 250.768
L204.803 250.27
L206.609 249.599
L208.415 248.703
L210.221 247.524
L212.027 245.989
L213.833 244.018
L215.639 241.518
L217.445 238.386
L219.251 234.514
L221.057 229.79
L222.863 224.105
L224.669 217.359
L226.475 209.468
L228.281 200.376
L230.087 190.064
L231.893 178.558
L234.602 159.264
L237.311 138.059
L243.632 87.0241
L245.438 73.9629
L247.244 62.482
L249.05 53.0771
L249.953 49.2972
L250.856 46.2011
L251.759 43.8334
L252.662 42.2322
L253.565 41.4284
L254.468 41.4443
L255.371 42.2936
L256.274 43.9807
L257.177 46.5001
L258.08 49.8366
L258.983 53.9649
L259.886 58.8503
L261.692 70.7068
L263.498 84.9529
L265.304 101.024
L268.916 136.055
L272.528 170.584
L274.334 186.239
L276.14 200.273
L277.946 212.446
L279.753 222.653
L281.559 230.92
L283.365 237.377
L284.268 239.989
L285.171 242.232
L286.074 244.136
L286.977 245.736
L287.88 247.066
L288.783 248.159
L289.686 249.046
L290.589 249.758
L292.395 250.76
L294.201 251.354
L296.007 251.685
L298.716 251.908
L303.231 251.993
L324 252
L324 252" style="fill:none;stroke:#000000;stroke-linecap:square;"/>
   </g>
   <g id="patch_3">
    <path d="
M54 28.8
L324 28.8" style="fill:none;stroke:#000000;stroke-linecap:square;stroke-linejoin:miter;"/>
   </g>
   <g id="patch_4">
    <path d="
M324 252
L324 28.8" style="fill:none;stroke:#000000;stroke-linecap:square;stroke-linejoin:miter;"/>
   </g>
   <g id="patch_5">
    <path d="
M54 252
L324 252" style="fill:none;stroke:#000000;stroke-linecap:square;stroke-linejoin:miter;"/>
   </g>
   <g id="patch_6">
    <path d="
M54 252
L54 28.8" style="fill:none;stroke:#000000;stroke-linecap:square;stroke-linejoin:miter;"/>
   </g>
   <g id="matplotlib.axis_1">
    <g id="xtick_1">
     <g id="line2d_8">
      <defs>
       <path d="
M0 0
L0 -4" id="m93b0483c22" style="stroke:#000000;stroke-width:0.5;"/>
      </defs>
      <g>
       <use style="stroke:#000000;stroke-width:0.5;" x="54.0" xlink:href="#m93b0483c22" y="252.0"/>
      </g>
     </g>
     <g id="line2d_9">
      <defs>
       <path d="
M0 0
L0 4" id="m741efc42ff" style="stroke:#000000;stroke-width:0.5;"/>
      </defs>
      <g>
       <use style="stroke:#000000;stroke-width:0.5;" x="54.0" xlink:href="#m741efc42ff" y="28.8"/>
      </g>
     </g>
     <g id="text_1">
      <!-- 0.0 -->
      <defs>
       <path d="
M31.7812 66.4062
Q24.1719 66.4062 20.3281 58.9062
Q16.5 51.4219 16.5 36.375
Q16.5 21.3906 20.3281 13.8906
Q24.1719 6.39062 31.7812 6.39062
Q39.4531 6.39062 43.2812 13.8906
Q47.125 21.3906 47.125 36.375
Q47.125 51.4219 43.2812 58.9062
Q39.4531 66.4062 31.7812 66.4062
M31.7812 74.2188
Q44.0469 74.2188 50.5156 64.5156
Q56.9844 54.8281 56.9844 36.375
Q56.9844 17.9688 50.5156 8.26562
Q44.0469 -1.42188 31.7812 -1.42188
Q19.5312 -1.42188 13.0625 8.26562
Q6.59375 17.9688 6.59375 36.375
Q6.59375 54.8281 13.0625 64.5156
Q19.5312 74.2188 31.7812 74.2188" id="BitstreamVeraSans-Roman-30"/>
       <path d="
M10.6875 12.4062
L21 12.4062
L21 0
L10.6875 0
z
" id="BitstreamVeraSans-Roman-2e"/>
      </defs>
      <g transform="translate(46.71015625 263.5984375)scale(0.1 -0.1)">
       <use xlink:href="#BitstreamVeraSans-Roman-30"/>
       <use x="63.623046875" xlink:href="#BitstreamVeraSans-Roman-2e"/>
       <use x="95.41015625" xlink:href="#BitstreamVeraSans-Roman-30"/>
      </g>
     </g>
    </g>
    <g id="xtick_2">
     <g id="line2d_10">
      <g>
       <use style="stroke:#000000;stroke-width:0.5;" x="108.0" xlink:href="#m93b0483c22" y="252.0"/>
      </g>
     </g>
     <g id="line2d_11">
      <g>
       <use style="stroke:#000000;stroke-width:0.5;" x="108.0" xlink:href="#m741efc42ff" y="28.8"/>
      </g>
     </g>
     <g id="text_2">
      <!-- 0.2 -->
      <defs>
       <path d="
M19.1875 8.29688
L53.6094 8.29688
L53.6094 0
L7.32812 0
L7.32812 8.29688
Q12.9375 14.1094 22.625 23.8906
Q32.3281 33.6875 34.8125 36.5312
Q39.5469 41.8438 41.4219 45.5312
Q43.3125 49.2188 43.3125 52.7812
Q43.3125 58.5938 39.2344 62.25
Q35.1562 65.9219 28.6094 65.9219
Q23.9688 65.9219 18.8125 64.3125
Q13.6719 62.7031 7.8125 59.4219
L7.8125 69.3906
Q13.7656 71.7812 18.9375 73
Q24.125 74.2188 28.4219 74.2188
Q39.75 74.2188 46.4844 68.5469
Q53.2188 62.8906 53.2188 53.4219
Q53.2188 48.9219 51.5312 44.8906
Q49.8594 40.875 45.4062 35.4062
Q44.1875 33.9844 37.6406 27.2188
Q31.1094 20.4531 19.1875 8.29688" id="BitstreamVeraSans-Roman-32"/>
      </defs>
      <g transform="translate(100.87890625 263.5984375)scale(0.1 -0.1)">
       <use xlink:href="#BitstreamVeraSans-Roman-30"/>
       <use x="63.623046875" xlink:href="#BitstreamVeraSans-Roman-2e"/>
       <use x="95.41015625" xlink:href="#BitstreamVeraSans-Roman-32"/>
      </g>
     </g>
    </g>
    <g id="xtick_3">
     <g id="line2d_12">
      <g>
       <use style="stroke:#000000;stroke-width:0.5;" x="162.0" xlink:href="#m93b0483c22" y="252.0"/>
      </g>
     </g>
     <g id="line2d_13">
      <g>
       <use style="stroke:#000000;stroke-width:0.5;" x="162.0" xlink:href="#m741efc42ff" y="28.8"/>
      </g>
     </g>
     <g id="text_3">
      <!-- 0.4 -->
      <defs>
       <path d="
M37.7969 64.3125
L12.8906 25.3906
L37.7969 25.3906
z

M35.2031 72.9062
L47.6094 72.9062
L47.6094 25.3906
L58.0156 25.3906
L58.0156 17.1875
L47.6094 17.1875
L47.6094 0
L37.7969 0
L37.7969 17.1875
L4.89062 17.1875
L4.89062 26.7031
z
" id="BitstreamVeraSans-Roman-34"/>
      </defs>
      <g transform="translate(154.65859375 263.5984375)scale(0.1 -0.1)">
       <use xlink:href="#BitstreamVeraSans-Roman-30"/>
       <use x="63.623046875" xlink:href="#BitstreamVeraSans-Roman-2e"/>
       <use x="95.41015625" xlink:href="#BitstreamVeraSans-Roman-34"/>
      </g>
     </g>
    </g>
    <g id="xtick_4">
     <g id="line2d_14">
      <g>
       <use style="stroke:#000000;stroke-width:0.5;" x="216.0" xlink:href="#m93b0483c22" y="252.0"/>
      </g>
     </g>
     <g id="line2d_15">
      <g>
       <use style="stroke:#000000;stroke-width:0.5;" x="216.0" xlink:href="#m741efc42ff" y="28.8"/>
      </g>
     </g>
     <g id="text_4">
      <!-- 0.6 -->
      <defs>
       <path d="
M33.0156 40.375
Q26.375 40.375 22.4844 35.8281
Q18.6094 31.2969 18.6094 23.3906
Q18.6094 15.5312 22.4844 10.9531
Q26.375 6.39062 33.0156 6.39062
Q39.6562 6.39062 43.5312 10.9531
Q47.4062 15.5312 47.4062 23.3906
Q47.4062 31.2969 43.5312 35.8281
Q39.6562 40.375 33.0156 40.375
M52.5938 71.2969
L52.5938 62.3125
Q48.875 64.0625 45.0938 64.9844
Q41.3125 65.9219 37.5938 65.9219
Q27.8281 65.9219 22.6719 59.3281
Q17.5312 52.7344 16.7969 39.4062
Q19.6719 43.6562 24.0156 45.9219
Q28.375 48.1875 33.5938 48.1875
Q44.5781 48.1875 50.9531 41.5156
Q57.3281 34.8594 57.3281 23.3906
Q57.3281 12.1562 50.6875 5.35938
Q44.0469 -1.42188 33.0156 -1.42188
Q20.3594 -1.42188 13.6719 8.26562
Q6.98438 17.9688 6.98438 36.375
Q6.98438 53.6562 15.1875 63.9375
Q23.3906 74.2188 37.2031 74.2188
Q40.9219 74.2188 44.7031 73.4844
Q48.4844 72.75 52.5938 71.2969" id="BitstreamVeraSans-Roman-36"/>
      </defs>
      <g transform="translate(208.69296875 263.5984375)scale(0.1 -0.1)">
       <use xlink:href="#BitstreamVeraSans-Roman-30"/>
       <use x="63.623046875" xlink:href="#BitstreamVeraSans-Roman-2e"/>
       <use x="95.41015625" xlink:href="#BitstreamVeraSans-Roman-36"/>
      </g>
     </g>
    </g>
    <g id="xtick_5">
     <g id="line2d_16">
      <g>
       <use style="stroke:#000000;stroke-width:0.5;" x="270.0" xlink:href="#m93b0483c22" y="252.0"/>
      </g>
     </g>
     <g id="line2d_17">
      <g>
       <use style="stroke:#000000;stroke-width:0.5;" x="270.0" xlink:href="#m741efc42ff" y="28.8"/>
      </g>
     </g>
     <g id="text_5">
      <!-- 0.8 -->
      <defs>
       <path d="
M31.7812 34.625
Q24.75 34.625 20.7188 30.8594
Q16.7031 27.0938 16.7031 20.5156
Q16.7031 13.9219 20.7188 10.1562
Q24.75 6.39062 31.7812 6.39062
Q38.8125 6.39062 42.8594 10.1719
Q46.9219 13.9688 46.9219 20.5156
Q46.9219 27.0938 42.8906 30.8594
Q38.875 34.625 31.7812 34.625
M21.9219 38.8125
Q15.5781 40.375 12.0312 44.7188
Q8.5 49.0781 8.5 55.3281
Q8.5 64.0625 14.7188 69.1406
Q20.9531 74.2188 31.7812 74.2188
Q42.6719 74.2188 48.875 69.1406
Q55.0781 64.0625 55.0781 55.3281
Q55.0781 49.0781 51.5312 44.7188
Q48 40.375 41.7031 38.8125
Q48.8281 37.1562 52.7969 32.3125
Q56.7812 27.4844 56.7812 20.5156
Q56.7812 9.90625 50.3125 4.23438
Q43.8438 -1.42188 31.7812 -1.42188
Q19.7344 -1.42188 13.25 4.23438
Q6.78125 9.90625 6.78125 20.5156
Q6.78125 27.4844 10.7812 32.3125
Q14.7969 37.1562 21.9219 38.8125
M18.3125 54.3906
Q18.3125 48.7344 21.8438 45.5625
Q25.3906 42.3906 31.7812 42.3906
Q38.1406 42.3906 41.7188 45.5625
Q45.3125 48.7344 45.3125 54.3906
Q45.3125 60.0625 41.7188 63.2344
Q38.1406 66.4062 31.7812 66.4062
Q25.3906 66.4062 21.8438 63.2344
Q18.3125 60.0625 18.3125 54.3906" id="BitstreamVeraSans-Roman-38"/>
      </defs>
      <g transform="translate(262.7203125 263.5984375)scale(0.1 -0.1)">
       <use xlink:href="#BitstreamVeraSans-Roman-30"/>
       <use x="63.623046875" xlink:href="#BitstreamVeraSans-Roman-2e"/>
       <use x="95.41015625" xlink:href="#BitstreamVeraSans-Roman-38"/>
      </g>
     </g>
    </g>
    <g id="xtick_6">
     <g id="line2d_18">
      <g>
       <use style="stroke:#000000;stroke-width:0.5;" x="324.0" xlink:href="#m93b0483c22" y="252.0"/>
      </g>
     </g>
     <g id="line2d_19">
      <g>
       <use style="stroke:#000000;stroke-width:0.5;" x="324.0" xlink:href="#m741efc42ff" y="28.8"/>
      </g>
     </g>
     <g id="text_6">
      <!-- 1.0 -->
      <defs>
       <path d="
M12.4062 8.29688
L28.5156 8.29688
L28.5156 63.9219
L10.9844 60.4062
L10.9844 69.3906
L28.4219 72.9062
L38.2812 72.9062
L38.2812 8.29688
L54.3906 8.29688
L54.3906 0
L12.4062 0
z
" id="BitstreamVeraSans-Roman-31"/>
      </defs>
      <g transform="translate(316.9296875 263.5984375)scale(0.1 -0.1)">
       <use xlink:href="#BitstreamVeraSans-Roman-31"/>
       <use x="63.623046875" xlink:href="#BitstreamVeraSans-Roman-2e"/>
       <use x="95.41015625" xlink:href="#BitstreamVeraSans-Roman-30"/>
      </g>
     </g>
    </g>
    <g id="text_7">
     <!-- $\alpha$ -->
     <defs>
      <path d="
M20.125 -1.125
Q15.375 -1.125 11.6875 1.125
Q8.01562 3.375 6 7.17188
Q4 10.9844 4 15.8281
Q4 22.6094 7.78125 29.25
Q11.5781 35.8906 17.8438 40.0312
Q24.125 44.1875 31 44.1875
Q36.0781 44.1875 39.9375 41.5312
Q43.7969 38.875 45.7969 34.4531
Q47.7969 30.0312 47.7969 25
L47.9062 18.3125
Q51.3125 23.0469 53.6875 28.1406
Q56.0625 33.25 57.3281 38.7188
Q57.5156 39.3125 58.1094 39.3125
L59.2812 39.3125
Q60.2031 39.3125 60.2031 38.375
Q60.2031 38.2812 60.1094 38.0938
Q58.9375 33.5 57.1719 29.2656
Q55.4219 25.0469 53.0469 21.0938
Q50.6875 17.1406 47.9062 13.9219
Q47.9062 1.51562 50.7812 1.51562
Q52.6406 1.51562 53.8281 2.60938
Q55.0312 3.71875 55.9375 5.32812
Q56.8438 6.9375 57.0781 6.98438
L58.2969 6.98438
Q59.0781 6.98438 59.0781 6
Q59.0781 3.51562 56.2188 1.1875
Q53.375 -1.125 50.5938 -1.125
Q46.9688 -1.125 44.5781 1.21875
Q42.1875 3.5625 41.3125 7.32812
Q36.625 3.32812 31.1562 1.09375
Q25.6875 -1.125 20.125 -1.125
M20.3125 1.51562
Q31 1.51562 40.8281 10.2969
Q40.7656 10.8906 40.6719 11.7344
Q40.5781 12.5938 40.5781 12.7031
L40.5781 23.4844
Q40.5781 41.6094 30.8125 41.6094
Q24.9531 41.6094 20.5469 36.5938
Q16.1562 31.5938 13.9375 24.625
Q11.7188 17.6719 11.7188 11.9219
Q11.7188 7.5625 13.9375 4.53125
Q16.1562 1.51562 20.3125 1.51562" id="Cmmi10-ae"/>
     </defs>
     <g transform="translate(185.8 278.2765625)scale(0.1 -0.1)">
      <use transform="translate(0.0 0.8125)" xlink:href="#Cmmi10-ae"/>
     </g>
    </g>
   </g>
   <g id="matplotlib.axis_2">
    <g id="ytick_1">
     <g id="line2d_20">
      <defs>
       <path d="
M0 0
L4 0" id="m728421d6d4" style="stroke:#000000;stroke-width:0.5;"/>
      </defs>
      <g>
       <use style="stroke:#000000;stroke-width:0.5;" x="54.0" xlink:href="#m728421d6d4" y="252.0"/>
      </g>
     </g>
     <g id="line2d_21">
      <defs>
       <path d="
M0 0
L-4 0" id="mcb0005524f" style="stroke:#000000;stroke-width:0.5;"/>
      </defs>
      <g>
       <use style="stroke:#000000;stroke-width:0.5;" x="324.0" xlink:href="#mcb0005524f" y="252.0"/>
      </g>
     </g>
     <g id="text_8">
      <!-- 0 -->
      <g transform="translate(44.9609375 254.759375)scale(0.1 -0.1)">
       <use xlink:href="#BitstreamVeraSans-Roman-30"/>
      </g>
     </g>
    </g>
    <g id="ytick_2">
     <g id="line2d_22">
      <g>
       <use style="stroke:#000000;stroke-width:0.5;" x="54.0" xlink:href="#m728421d6d4" y="224.1"/>
      </g>
     </g>
     <g id="line2d_23">
      <g>
       <use style="stroke:#000000;stroke-width:0.5;" x="324.0" xlink:href="#mcb0005524f" y="224.1"/>
      </g>
     </g>
     <g id="text_9">
      <!-- 1 -->
      <g transform="translate(45.659375 226.859375)scale(0.1 -0.1)">
       <use xlink:href="#BitstreamVeraSans-Roman-31"/>
      </g>
     </g>
    </g>
    <g id="ytick_3">
     <g id="line2d_24">
      <g>
       <use style="stroke:#000000;stroke-width:0.5;" x="54.0" xlink:href="#m728421d6d4" y="196.2"/>
      </g>
     </g>
     <g id="line2d_25">
      <g>
       <use style="stroke:#000000;stroke-width:0.5;" x="324.0" xlink:href="#mcb0005524f" y="196.2"/>
      </g>
     </g>
     <g id="text_10">
      <!-- 2 -->
      <g transform="translate(45.371875 198.959375)scale(0.1 -0.1)">
       <use xlink:href="#BitstreamVeraSans-Roman-32"/>
      </g>
     </g>
    </g>
    <g id="ytick_4">
     <g id="line2d_26">
      <g>
       <use style="stroke:#000000;stroke-width:0.5;" x="54.0" xlink:href="#m728421d6d4" y="168.3"/>
      </g>
     </g>
     <g id="line2d_27">
      <g>
       <use style="stroke:#000000;stroke-width:0.5;" x="324.0" xlink:href="#mcb0005524f" y="168.3"/>
      </g>
     </g>
     <g id="text_11">
      <!-- 3 -->
      <defs>
       <path d="
M40.5781 39.3125
Q47.6562 37.7969 51.625 33
Q55.6094 28.2188 55.6094 21.1875
Q55.6094 10.4062 48.1875 4.48438
Q40.7656 -1.42188 27.0938 -1.42188
Q22.5156 -1.42188 17.6562 -0.515625
Q12.7969 0.390625 7.625 2.20312
L7.625 11.7188
Q11.7188 9.32812 16.5938 8.10938
Q21.4844 6.89062 26.8125 6.89062
Q36.0781 6.89062 40.9375 10.5469
Q45.7969 14.2031 45.7969 21.1875
Q45.7969 27.6406 41.2812 31.2656
Q36.7656 34.9062 28.7188 34.9062
L20.2188 34.9062
L20.2188 43.0156
L29.1094 43.0156
Q36.375 43.0156 40.2344 45.9219
Q44.0938 48.8281 44.0938 54.2969
Q44.0938 59.9062 40.1094 62.9062
Q36.1406 65.9219 28.7188 65.9219
Q24.6562 65.9219 20.0156 65.0312
Q15.375 64.1562 9.8125 62.3125
L9.8125 71.0938
Q15.4375 72.6562 20.3438 73.4375
Q25.25 74.2188 29.5938 74.2188
Q40.8281 74.2188 47.3594 69.1094
Q53.9062 64.0156 53.9062 55.3281
Q53.9062 49.2656 50.4375 45.0938
Q46.9688 40.9219 40.5781 39.3125" id="BitstreamVeraSans-Roman-33"/>
      </defs>
      <g transform="translate(45.2015625 171.059375)scale(0.1 -0.1)">
       <use xlink:href="#BitstreamVeraSans-Roman-33"/>
      </g>
     </g>
    </g>
    <g id="ytick_5">
     <g id="line2d_28">
      <g>
       <use style="stroke:#000000;stroke-width:0.5;" x="54.0" xlink:href="#m728421d6d4" y="140.4"/>
      </g>
     </g>
     <g id="line2d_29">
      <g>
       <use style="stroke:#000000;stroke-width:0.5;" x="324.0" xlink:href="#mcb0005524f" y="140.4"/>
      </g>
     </g>
     <g id="text_12">
      <!-- 4 -->
      <g transform="translate(44.6875 143.159375)scale(0.1 -0.1)">
       <use xlink:href="#BitstreamVeraSans-Roman-34"/>
      </g>
     </g>
    </g>
    <g id="ytick_6">
     <g id="line2d_30">
      <g>
       <use style="stroke:#000000;stroke-width:0.5;" x="54.0" xlink:href="#m728421d6d4" y="112.5"/>
      </g>
     </g>
     <g id="line2d_31">
      <g>
       <use style="stroke:#000000;stroke-width:0.5;" x="324.0" xlink:href="#mcb0005524f" y="112.5"/>
      </g>
     </g>
     <g id="text_13">
      <!-- 5 -->
      <defs>
       <path d="
M10.7969 72.9062
L49.5156 72.9062
L49.5156 64.5938
L19.8281 64.5938
L19.8281 46.7344
Q21.9688 47.4688 24.1094 47.8281
Q26.2656 48.1875 28.4219 48.1875
Q40.625 48.1875 47.75 41.5
Q54.8906 34.8125 54.8906 23.3906
Q54.8906 11.625 47.5625 5.09375
Q40.2344 -1.42188 26.9062 -1.42188
Q22.3125 -1.42188 17.5469 -0.640625
Q12.7969 0.140625 7.71875 1.70312
L7.71875 11.625
Q12.1094 9.23438 16.7969 8.0625
Q21.4844 6.89062 26.7031 6.89062
Q35.1562 6.89062 40.0781 11.3281
Q45.0156 15.7656 45.0156 23.3906
Q45.0156 31 40.0781 35.4375
Q35.1562 39.8906 26.7031 39.8906
Q22.75 39.8906 18.8125 39.0156
Q14.8906 38.1406 10.7969 36.2812
z
" id="BitstreamVeraSans-Roman-35"/>
      </defs>
      <g transform="translate(45.2828125 115.259375)scale(0.1 -0.1)">
       <use xlink:href="#BitstreamVeraSans-Roman-35"/>
      </g>
     </g>
    </g>
    <g id="ytick_7">
     <g id="line2d_32">
      <g>
       <use style="stroke:#000000;stroke-width:0.5;" x="54.0" xlink:href="#m728421d6d4" y="84.6"/>
      </g>
     </g>
     <g id="line2d_33">
      <g>
       <use style="stroke:#000000;stroke-width:0.5;" x="324.0" xlink:href="#mcb0005524f" y="84.6"/>
      </g>
     </g>
     <g id="text_14">
      <!-- 6 -->
      <g transform="translate(44.965625 87.359375)scale(0.1 -0.1)">
       <use xlink:href="#BitstreamVeraSans-Roman-36"/>
      </g>
     </g>
    </g>
    <g id="ytick_8">
     <g id="line2d_34">
      <g>
       <use style="stroke:#000000;stroke-width:0.5;" x="54.0" xlink:href="#m728421d6d4" y="56.7"/>
      </g>
     </g>
     <g id="line2d_35">
      <g>
       <use style="stroke:#000000;stroke-width:0.5;" x="324.0" xlink:href="#mcb0005524f" y="56.7"/>
      </g>
     </g>
     <g id="text_15">
      <!-- 7 -->
      <defs>
       <path d="
M8.20312 72.9062
L55.0781 72.9062
L55.0781 68.7031
L28.6094 0
L18.3125 0
L43.2188 64.5938
L8.20312 64.5938
z
" id="BitstreamVeraSans-Roman-37"/>
      </defs>
      <g transform="translate(45.3125 59.459375)scale(0.1 -0.1)">
       <use xlink:href="#BitstreamVeraSans-Roman-37"/>
      </g>
     </g>
    </g>
    <g id="ytick_9">
     <g id="line2d_36">
      <g>
       <use style="stroke:#000000;stroke-width:0.5;" x="54.0" xlink:href="#m728421d6d4" y="28.8"/>
      </g>
     </g>
     <g id="line2d_37">
      <g>
       <use style="stroke:#000000;stroke-width:0.5;" x="324.0" xlink:href="#mcb0005524f" y="28.8"/>
      </g>
     </g>
     <g id="text_16">
      <!-- 8 -->
      <g transform="translate(45.0 31.559375)scale(0.1 -0.1)">
       <use xlink:href="#BitstreamVeraSans-Roman-38"/>
      </g>
     </g>
    </g>
    <g id="text_17">
     <!-- Posterior probability -->
     <defs>
      <path id="BitstreamVeraSans-Roman-20"/>
      <path d="
M34.2812 27.4844
Q23.3906 27.4844 19.1875 25
Q14.9844 22.5156 14.9844 16.5
Q14.9844 11.7188 18.1406 8.90625
Q21.2969 6.10938 26.7031 6.10938
Q34.1875 6.10938 38.7031 11.4062
Q43.2188 16.7031 43.2188 25.4844
L43.2188 27.4844
z

M52.2031 31.2031
L52.2031 0
L43.2188 0
L43.2188 8.29688
Q40.1406 3.32812 35.5469 0.953125
Q30.9531 -1.42188 24.3125 -1.42188
Q15.9219 -1.42188 10.9531 3.29688
Q6 8.01562 6 15.9219
Q6 25.1406 12.1719 29.8281
Q18.3594 34.5156 30.6094 34.5156
L43.2188 34.5156
L43.2188 35.4062
Q43.2188 41.6094 39.1406 45
Q35.0625 48.3906 27.6875 48.3906
Q23 48.3906 18.5469 47.2656
Q14.1094 46.1406 10.0156 43.8906
L10.0156 52.2031
Q14.9375 54.1094 19.5781 55.0469
Q24.2188 56 28.6094 56
Q40.4844 56 46.3438 49.8438
Q52.2031 43.7031 52.2031 31.2031" id="BitstreamVeraSans-Roman-61"/>
      <path d="
M30.6094 48.3906
Q23.3906 48.3906 19.1875 42.75
Q14.9844 37.1094 14.9844 27.2969
Q14.9844 17.4844 19.1562 11.8438
Q23.3438 6.20312 30.6094 6.20312
Q37.7969 6.20312 41.9844 11.8594
Q46.1875 17.5312 46.1875 27.2969
Q46.1875 37.0156 41.9844 42.7031
Q37.7969 48.3906 30.6094 48.3906
M30.6094 56
Q42.3281 56 49.0156 48.375
Q55.7188 40.7656 55.7188 27.2969
Q55.7188 13.875 49.0156 6.21875
Q42.3281 -1.42188 30.6094 -1.42188
Q18.8438 -1.42188 12.1719 6.21875
Q5.51562 13.875 5.51562 27.2969
Q5.51562 40.7656 12.1719 48.375
Q18.8438 56 30.6094 56" id="BitstreamVeraSans-Roman-6f"/>
      <path d="
M9.42188 75.9844
L18.4062 75.9844
L18.4062 0
L9.42188 0
z
" id="BitstreamVeraSans-Roman-6c"/>
      <path d="
M19.6719 64.7969
L19.6719 37.4062
L32.0781 37.4062
Q38.9688 37.4062 42.7188 40.9688
Q46.4844 44.5312 46.4844 51.125
Q46.4844 57.6719 42.7188 61.2344
Q38.9688 64.7969 32.0781 64.7969
z

M9.8125 72.9062
L32.0781 72.9062
Q44.3438 72.9062 50.6094 67.3594
Q56.8906 61.8125 56.8906 51.125
Q56.8906 40.3281 50.6094 34.8125
Q44.3438 29.2969 32.0781 29.2969
L19.6719 29.2969
L19.6719 0
L9.8125 0
z
" id="BitstreamVeraSans-Roman-50"/>
      <path d="
M9.42188 54.6875
L18.4062 54.6875
L18.4062 0
L9.42188 0
z

M9.42188 75.9844
L18.4062 75.9844
L18.4062 64.5938
L9.42188 64.5938
z
" id="BitstreamVeraSans-Roman-69"/>
      <path d="
M32.1719 -5.07812
Q28.375 -14.8438 24.75 -17.8125
Q21.1406 -20.7969 15.0938 -20.7969
L7.90625 -20.7969
L7.90625 -13.2812
L13.1875 -13.2812
Q16.8906 -13.2812 18.9375 -11.5156
Q21 -9.76562 23.4844 -3.21875
L25.0938 0.875
L2.98438 54.6875
L12.5 54.6875
L29.5938 11.9219
L46.6875 54.6875
L56.2031 54.6875
z
" id="BitstreamVeraSans-Roman-79"/>
      <path d="
M56.2031 29.5938
L56.2031 25.2031
L14.8906 25.2031
Q15.4844 15.9219 20.4844 11.0625
Q25.4844 6.20312 34.4219 6.20312
Q39.5938 6.20312 44.4531 7.46875
Q49.3125 8.73438 54.1094 11.2812
L54.1094 2.78125
Q49.2656 0.734375 44.1875 -0.34375
Q39.1094 -1.42188 33.8906 -1.42188
Q20.7969 -1.42188 13.1562 6.1875
Q5.51562 13.8125 5.51562 26.8125
Q5.51562 40.2344 12.7656 48.1094
Q20.0156 56 32.3281 56
Q43.3594 56 49.7812 48.8906
Q56.2031 41.7969 56.2031 29.5938
M47.2188 32.2344
Q47.125 39.5938 43.0938 43.9844
Q39.0625 48.3906 32.4219 48.3906
Q24.9062 48.3906 20.3906 44.1406
Q15.875 39.8906 15.1875 32.1719
z
" id="BitstreamVeraSans-Roman-65"/>
      <path d="
M18.3125 70.2188
L18.3125 54.6875
L36.8125 54.6875
L36.8125 47.7031
L18.3125 47.7031
L18.3125 18.0156
Q18.3125 11.3281 20.1406 9.42188
Q21.9688 7.51562 27.5938 7.51562
L36.8125 7.51562
L36.8125 0
L27.5938 0
Q17.1875 0 13.2344 3.875
Q9.28125 7.76562 9.28125 18.0156
L9.28125 47.7031
L2.6875 47.7031
L2.6875 54.6875
L9.28125 54.6875
L9.28125 70.2188
z
" id="BitstreamVeraSans-Roman-74"/>
      <path d="
M41.1094 46.2969
Q39.5938 47.1719 37.8125 47.5781
Q36.0312 48 33.8906 48
Q26.2656 48 22.1875 43.0469
Q18.1094 38.0938 18.1094 28.8125
L18.1094 0
L9.07812 0
L9.07812 54.6875
L18.1094 54.6875
L18.1094 46.1875
Q20.9531 51.1719 25.4844 53.5781
Q30.0312 56 36.5312 56
Q37.4531 56 38.5781 55.875
Q39.7031 55.7656 41.0625 55.5156
z
" id="BitstreamVeraSans-Roman-72"/>
      <path d="
M44.2812 53.0781
L44.2812 44.5781
Q40.4844 46.5312 36.375 47.5
Q32.2812 48.4844 27.875 48.4844
Q21.1875 48.4844 17.8438 46.4375
Q14.5 44.3906 14.5 40.2812
Q14.5 37.1562 16.8906 35.375
Q19.2812 33.5938 26.5156 31.9844
L29.5938 31.2969
Q39.1562 29.25 43.1875 25.5156
Q47.2188 21.7812 47.2188 15.0938
Q47.2188 7.46875 41.1875 3.01562
Q35.1562 -1.42188 24.6094 -1.42188
Q20.2188 -1.42188 15.4531 -0.5625
Q10.6875 0.296875 5.42188 2
L5.42188 11.2812
Q10.4062 8.6875 15.2344 7.39062
Q20.0625 6.10938 24.8125 6.10938
Q31.1562 6.10938 34.5625 8.28125
Q37.9844 10.4531 37.9844 14.4062
Q37.9844 18.0625 35.5156 20.0156
Q33.0625 21.9688 24.7031 23.7812
L21.5781 24.5156
Q13.2344 26.2656 9.51562 29.9062
Q5.8125 33.5469 5.8125 39.8906
Q5.8125 47.6094 11.2812 51.7969
Q16.75 56 26.8125 56
Q31.7812 56 36.1719 55.2656
Q40.5781 54.5469 44.2812 53.0781" id="BitstreamVeraSans-Roman-73"/>
      <path d="
M18.1094 8.20312
L18.1094 -20.7969
L9.07812 -20.7969
L9.07812 54.6875
L18.1094 54.6875
L18.1094 46.3906
Q20.9531 51.2656 25.2656 53.625
Q29.5938 56 35.5938 56
Q45.5625 56 51.7812 48.0938
Q58.0156 40.1875 58.0156 27.2969
Q58.0156 14.4062 51.7812 6.48438
Q45.5625 -1.42188 35.5938 -1.42188
Q29.5938 -1.42188 25.2656 0.953125
Q20.9531 3.32812 18.1094 8.20312
M48.6875 27.2969
Q48.6875 37.2031 44.6094 42.8438
Q40.5312 48.4844 33.4062 48.4844
Q26.2656 48.4844 22.1875 42.8438
Q18.1094 37.2031 18.1094 27.2969
Q18.1094 17.3906 22.1875 11.75
Q26.2656 6.10938 33.4062 6.10938
Q40.5312 6.10938 44.6094 11.75
Q48.6875 17.3906 48.6875 27.2969" id="BitstreamVeraSans-Roman-70"/>
      <path d="
M48.6875 27.2969
Q48.6875 37.2031 44.6094 42.8438
Q40.5312 48.4844 33.4062 48.4844
Q26.2656 48.4844 22.1875 42.8438
Q18.1094 37.2031 18.1094 27.2969
Q18.1094 17.3906 22.1875 11.75
Q26.2656 6.10938 33.4062 6.10938
Q40.5312 6.10938 44.6094 11.75
Q48.6875 17.3906 48.6875 27.2969
M18.1094 46.3906
Q20.9531 51.2656 25.2656 53.625
Q29.5938 56 35.5938 56
Q45.5625 56 51.7812 48.0938
Q58.0156 40.1875 58.0156 27.2969
Q58.0156 14.4062 51.7812 6.48438
Q45.5625 -1.42188 35.5938 -1.42188
Q29.5938 -1.42188 25.2656 0.953125
Q20.9531 3.32812 18.1094 8.20312
L18.1094 0
L9.07812 0
L9.07812 75.9844
L18.1094 75.9844
z
" id="BitstreamVeraSans-Roman-62"/>
     </defs>
     <g transform="translate(37.6078125 190.609375)rotate(-90.0)scale(0.1 -0.1)">
      <use xlink:href="#BitstreamVeraSans-Roman-50"/>
      <use x="56.677734375" xlink:href="#BitstreamVeraSans-Roman-6f"/>
      <use x="117.859375" xlink:href="#BitstreamVeraSans-Roman-73"/>
      <use x="169.958984375" xlink:href="#BitstreamVeraSans-Roman-74"/>
      <use x="209.16796875" xlink:href="#BitstreamVeraSans-Roman-65"/>
      <use x="270.69140625" xlink:href="#BitstreamVeraSans-Roman-72"/>
      <use x="311.8046875" xlink:href="#BitstreamVeraSans-Roman-69"/>
      <use x="339.587890625" xlink:href="#BitstreamVeraSans-Roman-6f"/>
      <use x="400.76953125" xlink:href="#BitstreamVeraSans-Roman-72"/>
      <use x="441.8828125" xlink:href="#BitstreamVeraSans-Roman-20"/>
      <use x="473.669921875" xlink:href="#BitstreamVeraSans-Roman-70"/>
      <use x="537.146484375" xlink:href="#BitstreamVeraSans-Roman-72"/>
      <use x="576.009765625" xlink:href="#BitstreamVeraSans-Roman-6f"/>
      <use x="637.19140625" xlink:href="#BitstreamVeraSans-Roman-62"/>
      <use x="700.66796875" xlink:href="#BitstreamVeraSans-Roman-61"/>
      <use x="761.947265625" xlink:href="#BitstreamVeraSans-Roman-62"/>
      <use x="825.423828125" xlink:href="#BitstreamVeraSans-Roman-69"/>
      <use x="853.20703125" xlink:href="#BitstreamVeraSans-Roman-6c"/>
      <use x="880.990234375" xlink:href="#BitstreamVeraSans-Roman-69"/>
      <use x="908.7734375" xlink:href="#BitstreamVeraSans-Roman-74"/>
      <use x="947.982421875" xlink:href="#BitstreamVeraSans-Roman-79"/>
     </g>
    </g>
   </g>
  </g>
  <g id="legend_1">
   <g id="patch_7">
    <path d="
M339.54 207.448
L426 207.448
L426 80.5519
L339.54 80.5519
z
" style="fill:#ffffff;stroke:#000000;stroke-linejoin:miter;"/>
   </g>
   <g id="line2d_38">
    <path d="
M347.94 90.27
L364.74 90.27" style="fill:none;stroke:#0000ff;stroke-linecap:square;"/>
   </g>
   <g id="line2d_39"/>
   <g id="text_18">
    <!-- 0 flips -->
    <defs>
     <path d="
M37.1094 75.9844
L37.1094 68.5
L28.5156 68.5
Q23.6875 68.5 21.7969 66.5469
Q19.9219 64.5938 19.9219 59.5156
L19.9219 54.6875
L34.7188 54.6875
L34.7188 47.7031
L19.9219 47.7031
L19.9219 0
L10.8906 0
L10.8906 47.7031
L2.29688 47.7031
L2.29688 54.6875
L10.8906 54.6875
L10.8906 58.5
Q10.8906 67.625 15.1406 71.7969
Q19.3906 75.9844 28.6094 75.9844
z
" id="BitstreamVeraSans-Roman-66"/>
    </defs>
    <g transform="translate(377.94 94.47)scale(0.12 -0.12)">
     <use xlink:href="#BitstreamVeraSans-Roman-30"/>
     <use x="63.623046875" xlink:href="#BitstreamVeraSans-Roman-20"/>
     <use x="95.41015625" xlink:href="#BitstreamVeraSans-Roman-66"/>
     <use x="130.615234375" xlink:href="#BitstreamVeraSans-Roman-6c"/>
     <use x="158.3984375" xlink:href="#BitstreamVeraSans-Roman-69"/>
     <use x="186.181640625" xlink:href="#BitstreamVeraSans-Roman-70"/>
     <use x="249.658203125" xlink:href="#BitstreamVeraSans-Roman-73"/>
    </g>
   </g>
   <g id="line2d_40">
    <path d="
M347.94 107.884
L364.74 107.884" style="fill:none;stroke:#008000;stroke-linecap:square;"/>
   </g>
   <g id="line2d_41"/>
   <g id="text_19">
    <!-- 1 flips -->
    <g transform="translate(377.94 112.08375)scale(0.12 -0.12)">
     <use xlink:href="#BitstreamVeraSans-Roman-31"/>
     <use x="63.623046875" xlink:href="#BitstreamVeraSans-Roman-20"/>
     <use x="95.41015625" xlink:href="#BitstreamVeraSans-Roman-66"/>
     <use x="130.615234375" xlink:href="#BitstreamVeraSans-Roman-6c"/>
     <use x="158.3984375" xlink:href="#BitstreamVeraSans-Roman-69"/>
     <use x="186.181640625" xlink:href="#BitstreamVeraSans-Roman-70"/>
     <use x="249.658203125" xlink:href="#BitstreamVeraSans-Roman-73"/>
    </g>
   </g>
   <g id="line2d_42">
    <path d="
M347.94 125.497
L364.74 125.497" style="fill:none;stroke:#ff0000;stroke-linecap:square;"/>
   </g>
   <g id="line2d_43"/>
   <g id="text_20">
    <!-- 2 flips -->
    <g transform="translate(377.94 129.6975)scale(0.12 -0.12)">
     <use xlink:href="#BitstreamVeraSans-Roman-32"/>
     <use x="63.623046875" xlink:href="#BitstreamVeraSans-Roman-20"/>
     <use x="95.41015625" xlink:href="#BitstreamVeraSans-Roman-66"/>
     <use x="130.615234375" xlink:href="#BitstreamVeraSans-Roman-6c"/>
     <use x="158.3984375" xlink:href="#BitstreamVeraSans-Roman-69"/>
     <use x="186.181640625" xlink:href="#BitstreamVeraSans-Roman-70"/>
     <use x="249.658203125" xlink:href="#BitstreamVeraSans-Roman-73"/>
    </g>
   </g>
   <g id="line2d_44">
    <path d="
M347.94 143.111
L364.74 143.111" style="fill:none;stroke:#00bfbf;stroke-linecap:square;"/>
   </g>
   <g id="line2d_45"/>
   <g id="text_21">
    <!-- 4 flips -->
    <g transform="translate(377.94 147.31125)scale(0.12 -0.12)">
     <use xlink:href="#BitstreamVeraSans-Roman-34"/>
     <use x="63.623046875" xlink:href="#BitstreamVeraSans-Roman-20"/>
     <use x="95.41015625" xlink:href="#BitstreamVeraSans-Roman-66"/>
     <use x="130.615234375" xlink:href="#BitstreamVeraSans-Roman-6c"/>
     <use x="158.3984375" xlink:href="#BitstreamVeraSans-Roman-69"/>
     <use x="186.181640625" xlink:href="#BitstreamVeraSans-Roman-70"/>
     <use x="249.658203125" xlink:href="#BitstreamVeraSans-Roman-73"/>
    </g>
   </g>
   <g id="line2d_46">
    <path d="
M347.94 160.725
L364.74 160.725" style="fill:none;stroke:#bf00bf;stroke-linecap:square;"/>
   </g>
   <g id="line2d_47"/>
   <g id="text_22">
    <!-- 10 flips -->
    <g transform="translate(377.94 164.925)scale(0.12 -0.12)">
     <use xlink:href="#BitstreamVeraSans-Roman-31"/>
     <use x="63.623046875" xlink:href="#BitstreamVeraSans-Roman-30"/>
     <use x="127.24609375" xlink:href="#BitstreamVeraSans-Roman-20"/>
     <use x="159.033203125" xlink:href="#BitstreamVeraSans-Roman-66"/>
     <use x="194.23828125" xlink:href="#BitstreamVeraSans-Roman-6c"/>
     <use x="222.021484375" xlink:href="#BitstreamVeraSans-Roman-69"/>
     <use x="249.8046875" xlink:href="#BitstreamVeraSans-Roman-70"/>
     <use x="313.28125" xlink:href="#BitstreamVeraSans-Roman-73"/>
    </g>
   </g>
   <g id="line2d_48">
    <path d="
M347.94 178.339
L364.74 178.339" style="fill:none;stroke:#bfbf00;stroke-linecap:square;"/>
   </g>
   <g id="line2d_49"/>
   <g id="text_23">
    <!-- 20 flips -->
    <g transform="translate(377.94 182.53875)scale(0.12 -0.12)">
     <use xlink:href="#BitstreamVeraSans-Roman-32"/>
     <use x="63.623046875" xlink:href="#BitstreamVeraSans-Roman-30"/>
     <use x="127.24609375" xlink:href="#BitstreamVeraSans-Roman-20"/>
     <use x="159.033203125" xlink:href="#BitstreamVeraSans-Roman-66"/>
     <use x="194.23828125" xlink:href="#BitstreamVeraSans-Roman-6c"/>
     <use x="222.021484375" xlink:href="#BitstreamVeraSans-Roman-69"/>
     <use x="249.8046875" xlink:href="#BitstreamVeraSans-Roman-70"/>
     <use x="313.28125" xlink:href="#BitstreamVeraSans-Roman-73"/>
    </g>
   </g>
   <g id="line2d_50">
    <path d="
M347.94 195.953
L364.74 195.953" style="fill:none;stroke:#000000;stroke-linecap:square;"/>
   </g>
   <g id="line2d_51"/>
   <g id="text_24">
    <!-- 40 flips -->
    <g transform="translate(377.94 200.1525)scale(0.12 -0.12)">
     <use xlink:href="#BitstreamVeraSans-Roman-34"/>
     <use x="63.623046875" xlink:href="#BitstreamVeraSans-Roman-30"/>
     <use x="127.24609375" xlink:href="#BitstreamVeraSans-Roman-20"/>
     <use x="159.033203125" xlink:href="#BitstreamVeraSans-Roman-66"/>
     <use x="194.23828125" xlink:href="#BitstreamVeraSans-Roman-6c"/>
     <use x="222.021484375" xlink:href="#BitstreamVeraSans-Roman-69"/>
     <use x="249.8046875" xlink:href="#BitstreamVeraSans-Roman-70"/>
     <use x="313.28125" xlink:href="#BitstreamVeraSans-Roman-73"/>
    </g>
   </g>
  </g>
 </g>
 <defs>
  <clipPath id="p9c5ff84a40">
   <rect height="223.2" width="270.0" x="54.0" y="28.8"/>
  </clipPath>
 </defs>
</svg>
